<?xml version="1.0" encoding="UTF-8" standalone="no"?>
<!DOCTYPE svg PUBLIC "-//W3C//DTD SVG 1.1//EN" "http://www.w3.org/Graphics/SVG/1.1/DTD/svg11.dtd">
<svg width="100%" height="100%" viewBox="0 0 300 275" version="1.1" xmlns="http://www.w3.org/2000/svg" xmlns:xlink="http://www.w3.org/1999/xlink" xml:space="preserve" xmlns:serif="http://www.serif.com/" style="fill-rule:evenodd;clip-rule:evenodd;stroke-linejoin:round;stroke-miterlimit:2;">
    <path id="path890" d="M276.6,0C276.1,8.3 273.8,16.3 269.9,23.6C261.4,39.5 245.9,46.9 228.5,48.7C219.9,49.6 211.2,49.4 202.9,46.7C194.4,44 187.4,38.5 181.4,32C176.9,27.1 173.4,21.3 169.9,15.6C166.8,10.7 164.1,5.4 161.9,0L276.6,0Z" style="fill-opacity:0.41;fill-rule:nonzero;"/>
    <path id="path892" d="M118.7,0C119.8,1.5 120.6,3.1 121.3,4.8L127.9,21.7C131.4,20.5 135,19.3 138.5,17.9C148.7,14.1 159.5,21.4 162.9,30.9C166.6,41.3 159.5,51.7 149.9,55.3C147.3,56.3 144.6,57.3 141.9,58.2C144.1,66.8 138.4,76.2 130.7,79.7C122.4,83.5 110.6,80.9 106.1,72.3L104.3,68.8C96.2,70.6 87.9,71.5 79.9,69.6C71.3,67.6 65.6,59.9 64.9,51.3C64.2,42.3 70.9,35 78.7,31.9L88.7,28C87.2,24 85.7,20 84.2,16.1C81.8,10.6 83.1,4.7 86.4,0L118.7,0Z" style="fill-opacity:0.41;fill-rule:nonzero;"/>
    <path id="path894" d="M65.7,24C61.7,28 57.3,29 51.9,29.7C46,30.5 40.2,31 34.3,31.2C35.9,33.1 37.3,35.3 38.3,37.6C41.8,45.5 40.2,54.7 34.3,60.9C28.6,66.7 19.5,70.1 11.7,73.3C14.4,77.1 16.9,80.9 19.4,84.7C25.3,93.9 21,105.9 12.4,111.4C8.7,113.7 4.3,114.6 -0,113.8L-0,0L68.2,0C70.1,3.1 71.2,6.6 71.4,10.2C71.6,15 69.1,20.6 65.7,24Z" style="fill-opacity:0.41;fill-rule:nonzero;"/>
    <path id="path896" d="M68.2,275L0,275L0,267.5C2.3,266.5 4.9,266.1 7.4,266.4C22.2,267.9 37.1,267.6 51.9,265.7C58.9,264.8 64.8,269.2 68.2,275Z" style="fill-opacity:0.41;fill-rule:nonzero;"/>
    <path id="path898" d="M300,0L300,113.8C294.1,112.8 289,109.3 285.7,104.4C282.4,99.3 278.9,94.2 275.3,89.3C274.4,88.1 273.4,86.9 272.6,85.6L272.1,84.9L271.8,84.5C269.9,82.1 268,79.7 266,77.4C261.4,71.9 259,65.6 261,58.4C262.8,51.8 268,46.6 274.6,44.8C281.2,43.2 287.7,41.2 294,38.7L295.2,38.2C295.1,37.8 294.9,37.3 294.8,36.9L288.7,16.1C287.2,10.8 288.4,4.8 291.5,-0L300,0Z" style="fill-opacity:0.41;fill-rule:nonzero;"/>
    <path id="path900" d="M300,138.5L300,236.6C294.8,237.7 289.4,236.9 284.8,234.3C275.5,229 274,217.1 278.3,208.2C278.7,206.8 279.2,205.4 279.7,204C275.8,206.6 271.7,208.8 267.3,210.7C264.2,212.3 260.8,213.2 257.3,213.2C247.2,213.2 237.7,203 238.7,192.8C240.6,173 251.5,154.8 269.3,145.3C278.8,140.3 289.4,137.9 300,138.5Z" style="fill-opacity:0.41;fill-rule:nonzero;"/>
    <path id="path902" d="M300,267.5L300,275L291.4,275C293.4,271.7 296.4,269.1 300,267.5Z" style="fill-opacity:0.41;fill-rule:nonzero;"/>
    <path id="path904" d="M276.6,275L162.1,275C161,272.1 160.1,269.2 159.4,266.1C156.9,255.5 166.1,245.8 175.7,243.9C184.8,242.1 192.5,247.8 196.2,255.5C196.5,246.4 204,238.8 212.8,237C223.4,234.9 233.1,243.3 235,253.3C235.2,254.5 235.5,255.7 235.7,256.9C235.9,255.5 236,254.2 236.1,252.8C236.6,243.1 245.8,235.7 255,235.5C265.1,235.3 272.6,242.3 274.7,251.9C276.5,259.6 277.1,267.3 276.6,275Z" style="fill-opacity:0.41;fill-rule:nonzero;"/>
    <path id="path906" d="M118.7,275L86.4,275C89,271.3 92.7,268.4 96.9,266.9C105.5,263.9 113.9,268.1 118.7,275Z" style="fill-opacity:0.41;fill-rule:nonzero;"/>
    <path id="path908" d="M261.4,95C256.6,79.6 242.2,70.5 226.3,70.8C219.8,70.9 213.4,72.5 207.2,74.4C204.5,75.2 201.7,76.1 199,76.7C198.4,76.8 197.9,76.9 197.3,77L196.8,77L196.8,76.3C196.9,75.5 197.1,74.2 197.2,73.9C197.5,72.4 197.9,70.9 198.3,69.4C200.7,60.3 195.3,49.4 185.7,47.3C176.3,45.2 166.1,50.1 163.6,59.9C160.3,72.6 158.7,87 166.8,98.3C176.2,111.5 191.8,114.4 206.9,111.7C212.5,110.7 217.9,108.5 223.4,107.2C224,107.1 225.3,106.9 225.7,106.9L226.9,106.9C226.9,107.2 227,107.2 227,106.9L227,109.4C227,110.7 226.8,112 226.7,113.2L226.7,113.9C226.2,117.3 225.7,120.7 225.2,124.2C223.9,133.5 227.5,144 237.8,146.3C246.3,148.2 258.5,143.7 259.9,133.7C261.9,121.1 265.3,107.5 261.4,95Z" style="fill-opacity:0.41;fill-rule:nonzero;"/>
    <path id="path910" d="M131.7,97C120.7,94.5 111.9,99.8 107.4,109.2C107.6,108.7 107.4,109 106.8,110.2C106.5,110.7 106.2,111.1 106.1,111.2L106,111.3L105.3,111.7L104.1,112.4L103.6,112.6C103.1,112.8 102.7,112.9 102.2,113L101.3,113.2L100.9,113.2C99.7,113.1 98.4,113.3 97.2,113.2C96.1,112.8 93.4,112 92.9,111.9L92.6,111.8L92.2,111.6C90.9,110.9 89.7,110.2 88.4,109.4L87.9,109.1L87.3,108.6C86,107.5 84.9,106.2 83.7,105L83.3,104.6C82.4,103.2 81.5,101.8 80.6,100.2C80.4,99.7 80.2,99.4 80,99.2C79.6,97.8 79.1,96.4 78.7,95C78.5,94.4 78.4,93.8 78.3,93.1C77.4,82.7 69.5,72.4 57.9,73C47.5,73.5 36.5,82 37.4,93.5C39.5,119.2 54.8,141.1 79,150.6C90.7,155.2 104.9,156.1 116.8,151.6C131,146.2 140.6,136.4 146.1,122.3C149.9,112.2 141.7,99.3 131.7,97Z" style="fill-opacity:0.41;fill-rule:nonzero;"/>
    <path id="path912" d="M217.7,205.6C215.8,189.1 215.4,172.5 216.5,155.9C217.2,145.2 206.5,134.9 196,135.4C184.2,135.9 176.3,144.4 175.5,155.9C175.3,158.4 175.2,160.9 175.1,163.4C174.6,162.8 174,162.3 173.5,161.7C164.5,151.9 147.8,154.8 141.3,165.8C137.7,172 134.6,178.6 132,185.3L130.5,183.3C129.3,181.6 128,179.9 126.8,178.1C121.9,171.2 115.1,167.1 106.4,168.3C98.1,169.4 92,175.1 89.4,183C84.1,199.4 80.5,216.2 78.6,233.3C77.2,244 88.9,254.3 99.1,253.8C111.3,253.2 118.2,244.7 119.6,233.3C119.7,232.8 119.7,232.5 119.7,232.2C119.7,231.9 119.8,231.7 119.8,231.4C124,234.7 128.6,237.6 133.5,239.8C140.4,242.9 147.3,243.8 154.2,239.8C161.1,235.8 163.5,229.5 164.4,222.1C164.4,221.9 164.4,221.7 164.5,221.5C164.6,220.9 164.7,220.4 164.8,219.8C165.1,218.1 165.4,216.4 165.8,214.7C166.1,213.3 166.5,211.9 166.8,210.5C173.2,215.3 180,219.5 187,223.3C193.5,226.8 201.2,227.1 207.7,223.3C213.2,219.9 218.5,212.5 217.7,205.6Z" style="fill-opacity:0.41;fill-rule:nonzero;"/>
    <path id="path914" d="M58,241.1C57.3,244.1 56,246.9 54.4,249.5C48.5,258.7 36.8,260.9 27.5,255.6C25.1,254.2 23.1,252.3 21.6,250C20.1,248 18.9,245.8 18,243.4C15.8,237.3 14.3,231 13.6,224.5C13,225.7 12.3,227 11.6,228.2C9.1,232.6 4.9,235.6 0,236.6L0,138.5C9.7,139 19.1,141.8 27.5,146.8C58.2,165.2 69.7,208.3 58,241.1Z" style="fill-opacity:0.41;fill-rule:nonzero;"/>
</svg>
